<svg xmlns="http://www.w3.org/2000/svg" width="32" height="32" viewBox="0 0 32 32"><g transform="translate(0 -1020.362)"><path d="M 15.984375,1022.3613 A 1.0000999,1.0000999 0 0 0 15,1023.377 l 0,25.9707 a 1.0000999,1.0000999 0 1 0 2,0 l 0,-25.9707 a 1.0000999,1.0000999 0 0 0 -1.015625,-1.0157 z" style="line-height:normal;text-indent:0;text-align:start;text-decoration-line:none;text-decoration-style:solid;text-decoration-color:#000;text-transform:none;block-progression:tb;white-space:normal;isolation:auto;mix-blend-mode:normal;solid-color:#000;solid-opacity:1" fill="#d8d7dc" fill-rule="evenodd" color="#000" enable-background="accumulate" font-family="sans-serif" font-weight="400" overflow="visible"/><path d="M13.017578 1023.3691a1.0000999 1.0000999 0 00-.552734 1.8379l2.976562 2a1.0000999 1.0000999 0 001.117188 0l2.976562-2a1.0005047 1.0005047 0 10-1.117187-1.6601L16 1025.1719l-2.417969-1.625a1.0000999 1.0000999 0 00-.564453-.1778zM15.992188 1045.3398a1.0000999 1.0000999 0 00-.550782.17l-2.976562 2.0019a1.0005462 1.0005462 0 101.117187 1.6602L16 1047.5449l2.417969 1.627a1.0005462 1.0005462 0 101.117187-1.6602l-2.976562-2.0019a1.0000999 1.0000999 0 00-.566406-.17zM27.289062 1028.8691a1.0000999 1.0000999 0 00-.542968.1407l-22.4921878 12.9863a1.0000999 1.0000999 0 101 1.7305l22.4921878-12.9844a1.0000999 1.0000999 0 00-.457032-1.8731z" style="line-height:normal;text-indent:0;text-align:start;text-decoration-line:none;text-decoration-style:solid;text-decoration-color:#000;text-transform:none;block-progression:tb;white-space:normal;isolation:auto;mix-blend-mode:normal;solid-color:#000;solid-opacity:1" fill="#d8d7dc" fill-rule="evenodd" color="#000" enable-background="accumulate" font-family="sans-serif" font-weight="400" overflow="visible"/><path d="M24.841797 1026.7793a1.0000999 1.0000999 0 00-.951172.9453l-.244141 3.5781a1.0000999 1.0000999 0 00.558594.9668l3.220703 1.5782a1.0001659 1.0001659 0 10.878907-1.7969l-2.617188-1.2813.199219-2.9082a1.0000999 1.0000999 0 00-1.044922-1.082zM4.0917969 1038.7695a1.0000999 1.0000999 0 00-.3964844 1.9043l2.6171875 1.2813-.1992188 2.9082A1.0003846 1.0003846 0 108.109375 1045l.2441406-3.5781a1.0000999 1.0000999 0 00-.5585937-.9668l-3.2207031-1.5781a1.0000999 1.0000999 0 00-.4824219-.1075zM4.6796875 1028.8574a1.0000999 1.0000999 0 00-.4257813 1.8711l22.4921878 12.9863a1.0001512 1.0001512 0 101-1.7324L5.2539062 1028.9961a1.0000999 1.0000999 0 00-.5742187-.1387z" style="line-height:normal;text-indent:0;text-align:start;text-decoration-line:none;text-decoration-style:solid;text-decoration-color:#000;text-transform:none;block-progression:tb;white-space:normal;isolation:auto;mix-blend-mode:normal;solid-color:#000;solid-opacity:1" fill="#d8d7dc" fill-rule="evenodd" color="#000" enable-background="accumulate" font-family="sans-serif" font-weight="400" overflow="visible"/><path d="M27.878906 1038.7695a1.0000999 1.0000999 0 00-.453125.1075l-3.220703 1.5781a1.0000999 1.0000999 0 00-.558594.9668L23.890625 1045a1.0003847 1.0003847 0 101.996094-.1367l-.199219-2.9082 2.617188-1.2813a1.0000999 1.0000999 0 00-.425782-1.9043zM7.1269531 1026.7793a1.0000999 1.0000999 0 00-1.0136719 1.082l.1992188 2.9082-2.6171875 1.2813a1.0001657 1.0001657 0 10.8789063 1.7969l3.2207031-1.5782a1.0000999 1.0000999 0 00.5585937-.9668l-.2441406-3.5781a1.0000999 1.0000999 0 00-.9824219-.9453zM13.017578 1027.3613a1.0000999 1.0000999 0 00-.552734 1.8379l2.976562 2a1.0000999 1.0000999 0 001.117188 0l2.976562-2a1.0005047 1.0005047 0 10-1.117187-1.6601L16 1029.1641l-2.417969-1.625a1.0000999 1.0000999 0 00-.564453-.1778zM15.992188 1041.3496a1.0000999 1.0000999 0 00-.550782.1699l-2.976562 2.002a1.0005047 1.0005047 0 001.117187 1.6601L16 1043.5547l2.417969 1.6269a1.0005047 1.0005047 0 001.117187-1.6601l-2.976562-2.002a1.0000999 1.0000999 0 00-.566406-.1699z" style="line-height:normal;text-indent:0;text-align:start;text-decoration-line:none;text-decoration-style:solid;text-decoration-color:#000;text-transform:none;block-progression:tb;white-space:normal;isolation:auto;mix-blend-mode:normal;solid-color:#000;solid-opacity:1" fill="#d8d7dc" fill-rule="evenodd" color="#000" enable-background="accumulate" font-family="sans-serif" font-weight="400" overflow="visible"/><path d="M24.421875 1036.7715a1.0000999 1.0000999 0 00-.453125.1074l-3.220703 1.5781a1.0000999 1.0000999 0 00-.556641.9668l.242188 3.5782a1.0003881 1.0003881 0 001.996094-.1368l-.197266-2.9082 2.617187-1.2812a1.0000999 1.0000999 0 00-.427734-1.9043zM10.583984 1028.7715a1.0000999 1.0000999 0 00-1.0136715 1.082l.1972656 2.9082-2.6171875 1.2813a1.0005503 1.0005503 0 10.8808594 1.7968l3.220703-1.5781a1.0000999 1.0000999 0 00.556641-.9648l-.242188-3.5781a1.0000999 1.0000999 0 00-.982422-.9473zM7.5488281 1036.7715a1.0000999 1.0000999 0 00-.3984375 1.9043l2.6171875 1.2812-.1972656 2.9082a1.0003879 1.0003879 0 001.9960935.1368l.244141-3.5782a1.0000999 1.0000999 0 00-.558594-.9668l-3.220703-1.5781a1.0000999 1.0000999 0 00-.4824219-.1074zM21.386719 1028.7734a1.0000999 1.0000999 0 00-.953125.9454l-.244141 3.5781a1.0000999 1.0000999 0 00.558594.9648l3.220703 1.5781a1.0005502 1.0005502 0 10.880859-1.7968l-2.617187-1.2813.197266-2.9082a1.0000999 1.0000999 0 00-1.042969-1.0801z" style="line-height:normal;text-indent:0;text-align:start;text-decoration-line:none;text-decoration-style:solid;text-decoration-color:#000;text-transform:none;block-progression:tb;white-space:normal;isolation:auto;mix-blend-mode:normal;solid-color:#000;solid-opacity:1" fill="#d8d7dc" fill-rule="evenodd" color="#000" enable-background="accumulate" font-family="sans-serif" font-weight="400" overflow="visible"/></g></svg>