<svg xmlns="http://www.w3.org/2000/svg" width="20.756" height="20" viewBox="0 0 25.756 27.987">
  <g id="snowflake" transform="translate(-3.122 -1022.361)">
    <path id="Path_16" data-name="Path 16" d="M15.984,1022.361a1,1,0,0,0-.984,1.016v25.971a1,1,0,1,0,2,0v-25.971a1,1,0,0,0-1.016-1.016Z" fill="#fff" fill-rule="evenodd"/>
    <path id="Path_17" data-name="Path 17" d="M13.018,1023.369a1,1,0,0,0-.553,1.838l2.977,2a1,1,0,0,0,1.117,0l2.977-2a1,1,0,0,0-1.117-1.66L16,1025.172l-2.418-1.625a1,1,0,0,0-.564-.178Zm2.975,21.971a1,1,0,0,0-.551.17l-2.977,2a1,1,0,1,0,1.117,1.66L16,1047.545l2.418,1.627a1,1,0,1,0,1.117-1.66l-2.977-2a1,1,0,0,0-.566-.17Zm11.3-16.471a1,1,0,0,0-.543.141L4.254,1042a1,1,0,1,0,1,1.73l22.492-12.984a1,1,0,0,0-.457-1.873Z" fill="#fff" fill-rule="evenodd"/>
    <path id="Path_18" data-name="Path 18" d="M24.842,1026.779a1,1,0,0,0-.951.945l-.244,3.578a1,1,0,0,0,.559.967l3.221,1.578a1,1,0,1,0,.879-1.8l-2.617-1.281.2-2.908a1,1,0,0,0-1.045-1.082Zm-20.75,11.99a1,1,0,0,0-.4,1.9l2.617,1.281-.2,2.908a1,1,0,1,0,2,.137l.244-3.578a1,1,0,0,0-.559-.967l-3.221-1.578a1,1,0,0,0-.482-.107Zm.588-9.912a1,1,0,0,0-.426,1.871l22.492,12.986a1,1,0,1,0,1-1.732L5.254,1029a1,1,0,0,0-.574-.139Z" fill="#fff" fill-rule="evenodd"/>
    <path id="Path_19" data-name="Path 19" d="M27.879,1038.77a1,1,0,0,0-.453.107l-3.221,1.578a1,1,0,0,0-.559.967l.244,3.578a1,1,0,1,0,2-.137l-.2-2.908,2.617-1.281a1,1,0,0,0-.426-1.9Zm-20.752-11.99a1,1,0,0,0-1.014,1.082l.2,2.908L3.7,1032.051a1,1,0,1,0,.879,1.8l3.221-1.578a1,1,0,0,0,.559-.967l-.244-3.578a1,1,0,0,0-.982-.945Zm5.891.582a1,1,0,0,0-.553,1.838l2.977,2a1,1,0,0,0,1.117,0l2.977-2a1,1,0,1,0-1.117-1.66L16,1029.164l-2.418-1.625a1,1,0,0,0-.564-.178Zm2.975,13.988a1,1,0,0,0-.551.17l-2.977,2a1,1,0,0,0,1.117,1.66L16,1043.555l2.418,1.627a1,1,0,1,0,1.117-1.66l-2.977-2a1,1,0,0,0-.566-.17Z" fill="#fff" fill-rule="evenodd"/>
    <path id="Path_20" data-name="Path 20" d="M24.422,1036.771a1,1,0,0,0-.453.107l-3.221,1.578a1,1,0,0,0-.557.967l.242,3.578a1,1,0,1,0,2-.137l-.2-2.908,2.617-1.281a1,1,0,0,0-.428-1.9Zm-13.838-8a1,1,0,0,0-1.014,1.082l.2,2.908-2.617,1.281a1,1,0,0,0,.881,1.8l3.221-1.578a1,1,0,0,0,.557-.965l-.242-3.578a1,1,0,0,0-.982-.947Zm-3.035,8a1,1,0,0,0-.4,1.9l2.617,1.281-.2,2.908a1,1,0,1,0,2,.137l.244-3.578a1,1,0,0,0-.559-.967l-3.221-1.578a1,1,0,0,0-.482-.107Zm13.838-8a1,1,0,0,0-.953.945l-.244,3.578a1,1,0,0,0,.559.965l3.221,1.578a1,1,0,1,0,.881-1.8l-2.617-1.281.2-2.908a1,1,0,0,0-1.043-1.08Z" fill="#fff" fill-rule="evenodd"/>
  </g>
</svg>
